<svg xmlns="http://www.w3.org/2000/svg" width="71" height="55" viewBox="0 0 71 55" version="1.1"><g id="Page-1" stroke="none" stroke-width="1" fill="none" fill-rule="evenodd"><g id="SCREENSHOTS_HOVER" transform="translate(-420.000000, -428.000000)" fill="#FFFFFF"><g id="Imported-Layers" transform="translate(420.000000, 428.000000)"><path d="M2.01 0C0.9 0 0 0.91 0 2.01L0 52.99C0 54.1 0.9 55 2.01 55L68.99 55C70.1 55 71 54.1 71 52.99L71 2.01C71 0.91 70.1 0 68.99 0L2.01 0 2.01 0ZM66 47.97C66 49.08 65.09 49.98 63.99 49.98L7.01 49.98C5.91 49.98 5 49.08 5 47.97L5 7.03C5 5.92 5.91 5.01 7.01 5.01L63.99 5.01C65.09 5.01 66 5.92 66 7.03L66 47.97 66 47.97Z" id="Fill-1"/><path d="M36.37 35.68C35.82 36.65 34.75 36.77 33.99 35.96L21.04 22.06C20.29 21.26 19.24 21.39 18.72 22.37L9.95 38.73C9.43 39.71 9 41.42 9 42.53L9 43.98C9 45.09 9.9 46 11.01 46L60 46C61.11 46 61.33 45.4 60.5 44.67L42.53 28.88C41.7 28.15 40.57 28.34 40.02 29.31L36.37 35.68 36.37 35.68ZM53.79 24.76C56.74 24.76 59.12 22.35 59.12 19.38 59.12 16.41 56.74 14 53.79 14 50.86 14 48.47 16.41 48.47 19.38 48.47 22.35 50.86 24.76 53.79 24.76L53.79 24.76Z" id="Fill-2"/></g></g></g></svg>